<?xml version="1.0" encoding="UTF-8" standalone="no"?>
<!-- Created with Inkscape (http://www.inkscape.org/) -->

<svg
   width="512"
   height="512"
   viewBox="0 0 512 512"
   version="1.1"
   id="svg1"
   sodipodi:docname="livejson.svg"
   inkscape:version="1.4.2 (ebf0e940d0, 2025-05-08)"
   xmlns:inkscape="http://www.inkscape.org/namespaces/inkscape"
   xmlns:sodipodi="http://sodipodi.sourceforge.net/DTD/sodipodi-0.dtd"
   xmlns="http://www.w3.org/2000/svg"
   xmlns:svg="http://www.w3.org/2000/svg">
  <sodipodi:namedview
     id="namedview1"
     pagecolor="#ffffff"
     bordercolor="#111111"
     borderopacity="1"
     inkscape:showpageshadow="0"
     inkscape:pageopacity="0"
     inkscape:pagecheckerboard="1"
     inkscape:deskcolor="#d1d1d1"
     inkscape:document-units="px"
     inkscape:zoom="0.55"
     inkscape:cx="256.36364"
     inkscape:cy="256.36364"
     inkscape:window-width="1366"
     inkscape:window-height="699"
     inkscape:window-x="0"
     inkscape:window-y="0"
     inkscape:window-maximized="1"
     inkscape:current-layer="layer2" />
  <defs
     id="defs1" />
  <g
     inkscape:label="Layer 1"
     inkscape:groupmode="layer"
     id="layer1">
    <rect
       style="fill:#2d2d2d"
       id="rect4"
       width="487.27274"
       height="487.27271"
       x="10.909091"
       y="10.909091"
       rx="35.035164"
       ry="26.561102" />
  </g>
  <g
     inkscape:groupmode="layer"
     id="layer2"
     inkscape:label="Layer 2">
    <path
       d="m 114.43636,383.63635 v -279.2 h 60.8 v 225.2 h 106.4 v 54 z m 208.80027,-210 h 59.2 v 232.4 q 0,28 -14,42.8 -14,14.8 -45.2,14.8 h -31.2 v -46 h 31.2 z m 29.6,-22.4 q -18,0 -26.4,-8 -8,-8.4 -8,-21.2 v -8.8 q 0,-12.8 8,-20.799997 8.4,-8.4 26.4,-8.4 18,0 26,8.4 8.4,7.999997 8.4,20.799997 v 8.8 q 0,12.8 -8.4,21.2 -8,8 -26,8 z"
       id="text6"
       style="font-weight:bold;font-size:400px;line-height:0;font-family:'IBM Plex Sans';-inkscape-font-specification:'IBM Plex Sans Bold';fill:#ffffff"
       aria-label="Lj" />
  </g>
</svg>
