<svg xmlns="http://www.w3.org/2000/svg" width="512" height="512" viewBox="0 0 512 512">
  <rect width="487.273" height="487.273" x="10.909" y="10.909" rx="35.035" ry="26.561" style="fill:#2d2d2d"/>
  <path d="M114.436 383.636v-279.2h60.8v225.2h106.4v54zm208.8-210h59.2v232.4q0 28-14 42.8t-45.2 14.8h-31.2v-46h31.2zm29.6-22.4q-18 0-26.4-8-8-8.4-8-21.2v-8.8q0-12.8 8-20.8 8.4-8.4 26.4-8.4t26 8.4q8.4 8 8.4 20.8v8.8q0 12.8-8.4 21.2-8 8-26 8" aria-label="Lj" style="font-weight:700;font-size:400px;line-height:0;font-family:&quot;IBM Plex Sans&quot;;-inkscape-font-specification:&quot;IBM Plex Sans Bold&quot;;fill:#fff"/>
</svg>
